<?xml version="1.0" encoding="UTF-8" ?>
<!DOCTYPE svg PUBLIC "-//W3C//DTD SVG 1.1//EN" "http://www.w3.org/Graphics/SVG/1.1/DTD/svg11.dtd">
<svg width="215.25pt" height="261pt" viewBox="0 0 984 1192" version="1.1" xmlns="http://www.w3.org/2000/svg">
<g id="#35408eff">
<path fill="#35408e" opacity="1.00" d=" M 418.66 55.60 C 446.35 44.26 473.27 28.99 493.49 6.57 C 505.44 20.55 520.79 31.19 536.58 40.41 C 575.45 62.37 619.67 73.89 664.00 77.35 C 691.45 79.21 719.22 77.42 746.03 71.11 C 758.84 68.04 771.51 64.13 783.44 58.48 C 795.69 91.77 814.52 122.50 837.44 149.49 C 861.63 177.74 891.27 201.00 923.32 219.70 C 937.47 227.88 952.06 235.35 967.28 241.35 C 957.72 253.55 950.97 267.67 945.42 282.06 C 931.87 318.08 926.24 356.61 924.50 394.91 C 922.22 452.69 929.08 510.53 941.02 567.01 C 945.73 589.82 951.90 612.28 957.48 634.88 C 969.14 682.14 977.98 730.32 979.85 779.05 C 981.62 826.66 976.56 875.27 958.91 919.83 C 946.34 951.85 926.92 981.21 901.92 1004.88 C 874.24 1031.48 840.35 1050.90 804.73 1064.80 C 778.92 1074.86 752.06 1082.10 724.88 1087.40 C 705.96 1091.16 686.76 1093.30 667.87 1097.22 C 626.80 1105.49 586.05 1117.77 549.42 1138.47 C 532.34 1148.35 516.00 1160.01 502.90 1174.88 C 499.41 1178.95 496.00 1183.16 493.53 1187.95 C 482.95 1170.76 467.06 1157.65 450.49 1146.51 C 414.64 1123.14 373.46 1109.36 331.96 1099.97 C 309.34 1094.63 286.22 1091.97 263.40 1087.70 C 214.14 1078.20 165.38 1062.31 123.01 1034.93 C 96.34 1017.64 72.59 995.61 54.44 969.46 C 33.05 938.97 19.57 903.41 12.78 866.92 C 5.72 829.10 5.29 790.32 8.68 752.09 C 12.82 704.69 23.08 658.08 35.06 612.11 C 47.66 563.92 56.97 514.77 60.83 465.07 C 64.31 420.39 63.51 375.10 55.02 330.99 C 50.71 308.97 44.48 287.22 34.92 266.88 C 30.72 257.82 25.58 249.20 19.52 241.27 C 44.68 231.39 68.30 217.83 90.46 202.42 C 120.13 181.68 146.54 156.12 167.29 126.41 C 181.96 105.37 194.60 82.74 203.26 58.55 C 232.00 71.43 263.59 77.04 294.94 77.96 C 337.11 78.93 379.41 70.97 418.66 55.60 Z" />
</g>
<g id="#ffffffff">
<path fill="#ffffff" opacity="1.00" d=" M 405.49 99.66 C 436.72 89.84 466.93 75.85 493.37 56.39 C 525.43 79.71 562.55 95.63 600.96 105.06 C 624.65 110.73 648.94 113.67 673.27 114.65 C 703.48 115.40 734.11 113.64 763.34 105.47 C 772.43 123.44 783.58 140.30 795.65 156.39 C 827.17 198.59 868.60 233.00 914.95 257.85 C 906.72 276.60 901.39 296.48 897.19 316.48 C 883.32 384.77 884.87 455.38 895.11 524.06 C 899.72 554.72 906.19 585.09 914.17 615.05 C 926.52 660.60 937.04 706.85 941.26 753.94 C 945.26 798.88 943.83 845.02 930.61 888.45 C 924.67 907.79 916.30 926.43 905.22 943.38 C 885.25 974.02 856.50 998.29 824.37 1015.41 C 784.63 1036.68 740.44 1048.25 696.05 1054.75 C 653.55 1060.55 611.47 1070.59 571.68 1086.75 C 551.08 1095.16 531.09 1105.17 512.54 1117.49 C 505.93 1122.01 499.34 1126.64 493.48 1132.12 C 481.05 1121.28 467.06 1112.39 452.64 1104.47 C 412.63 1082.74 368.72 1068.93 324.15 1060.24 C 300.06 1055.48 275.53 1053.29 251.63 1047.55 C 216.74 1039.64 182.45 1027.72 151.67 1009.29 C 127.62 994.95 105.91 976.41 89.05 953.99 C 68.24 926.51 55.47 893.60 49.19 859.87 C 41.18 817.01 42.57 772.95 48.24 729.89 C 51.63 704.39 56.67 679.14 62.63 654.12 C 67.82 632.07 74.25 610.33 79.33 588.24 C 91.53 536.07 98.89 482.66 99.68 429.05 C 100.06 391.45 97.24 353.71 89.70 316.83 C 85.46 296.73 80.16 276.73 71.87 257.88 C 103.25 240.98 132.34 219.75 157.80 194.80 C 183.90 168.47 206.36 138.40 223.52 105.51 C 244.23 111.35 265.77 113.70 287.21 114.63 C 327.07 115.79 367.31 111.46 405.49 99.66 Z" />
</g>
<g id="#ffd41cff">
<path fill="#ffd41c" opacity="1.00" d=" M 291.32 267.01 C 311.46 266.98 331.61 267.01 351.75 267.00 C 351.76 309.05 351.75 351.10 351.75 393.16 C 343.94 388.12 336.21 382.97 328.48 377.81 C 328.53 350.68 328.48 323.55 328.51 296.42 C 316.11 286.62 303.69 276.85 291.32 267.01 Z" />
</g>
</svg>
